<?xml version="1.0" encoding="utf-8"?>
<!-- Generator: Adobe Illustrator 16.0.0, SVG Export Plug-In . SVG Version: 6.00 Build 0)  -->
<!DOCTYPE svg PUBLIC "-//W3C//DTD SVG 1.1//EN" "http://www.w3.org/Graphics/SVG/1.1/DTD/svg11.dtd">
<svg version="1.1" id="Ebene_1" xmlns="http://www.w3.org/2000/svg" xmlns:xlink="http://www.w3.org/1999/xlink" x="0px" y="0px"
	 width="512px" height="512px" viewBox="0 0 512 512" enable-background="new 0 0 512 512" xml:space="preserve">
<g>
	<path fill="#1D1D1B" d="M462.94,453.168c11.264,0,21.029-3.727,29.327-11.072L350.231,300.033
		c-3.428,2.448-6.719,4.814-9.848,7.072c-10.637,7.836-19.262,13.957-25.872,18.336c-6.638,4.381-15.452,8.842-26.442,13.412
		c-11.019,4.57-21.274,6.855-30.796,6.855h-0.544c-9.522,0-19.778-2.285-30.796-6.855c-11.018-4.57-19.836-9.031-26.443-13.412
		c-6.611-4.379-15.231-10.5-25.875-18.336c-2.958-2.176-6.254-4.57-9.817-7.1l-142.09,142.09
		c8.294,7.346,18.067,11.072,29.357,11.072H462.94z M462.94,453.168"/>
	<path fill="#1D1D1B" d="M34.551,210.577c-10.644-7.093-20.05-15.208-28.269-24.345v216.145l125.22-125.224
		C106.449,259.661,74.157,237.482,34.551,210.577L34.551,210.577z M34.551,210.577"/>
	<path fill="#1D1D1B" d="M479.725,210.577c-38.113,25.79-70.486,47.996-97.175,66.631l125.169,125.169V186.232
		C499.694,195.179,490.363,203.286,479.725,210.577L479.725,210.577z M479.725,210.577"/>
	<path fill="#1D1D1B" d="M462.94,59.186H51.064c-14.367,0-25.443,4.839-33.166,14.555c-7.75,9.682-11.617,21.815-11.617,36.369
		c0,11.756,5.139,24.488,15.398,38.199c10.26,13.708,21.166,24.48,32.727,32.315c6.335,4.465,25.46,17.765,57.372,39.886
		c17.224,11.916,32.19,22.335,45.082,31.312c10.96,7.648,20.435,14.259,28.239,19.754c0.901,0.626,2.285,1.633,4.159,2.966
		c2.013,1.441,4.577,3.292,7.729,5.577c6.067,4.38,11.103,7.916,15.099,10.609c4.026,2.721,8.869,5.74,14.558,9.113
		c5.682,3.347,11.065,5.877,16.102,7.536c5.033,1.687,9.685,2.53,13.983,2.53h0.544c4.298,0,8.978-0.844,14.011-2.53
		c5.032-1.659,10.392-4.189,16.077-7.536c5.687-3.373,10.528-6.393,14.555-9.113c4.026-2.693,9.06-6.229,15.126-10.609
		c3.129-2.285,5.686-4.136,7.699-5.577c1.877-1.333,3.291-2.34,4.189-2.966c6.066-4.244,15.561-10.834,28.32-19.699
		c23.178-16.108,57.348-39.828,102.615-71.253c13.63-9.521,25.002-20.998,34.143-34.41c9.141-13.442,13.711-27.531,13.711-42.252
		c0-12.32-4.435-22.852-13.303-31.632C485.574,63.565,475.073,59.186,462.94,59.186L462.94,59.186z M462.94,59.186"/>
</g>
</svg>
