<?xml version="1.0" encoding="utf-8"?>
<!-- Generator: Adobe Illustrator 16.0.0, SVG Export Plug-In . SVG Version: 6.00 Build 0)  -->
<!DOCTYPE svg PUBLIC "-//W3C//DTD SVG 1.1//EN" "http://www.w3.org/Graphics/SVG/1.1/DTD/svg11.dtd">
<svg version="1.1" id="Ebene_1" xmlns="http://www.w3.org/2000/svg" xmlns:xlink="http://www.w3.org/1999/xlink" x="0px" y="0px"
	 width="512px" height="512px" viewBox="0 0 512 512" enable-background="new 0 0 512 512" xml:space="preserve">
<g>
	<path d="M388.81,145.661v-21.196c0-32.994-12.859-64.018-36.179-87.341C329.309,13.804,298.283,1,265.293,1h-2.072
		c-32.991,0-64.018,12.855-87.338,36.178c-23.323,23.324-36.179,54.348-36.179,87.338v21.198h42.5v-21.198
		c0-44.679,36.337-80.964,80.962-80.964h2.072c44.68,0,80.965,36.34,80.965,80.964v21.198h42.606V145.661z M388.81,145.661"/>
	<path d="M112.823,161.598c-14.662,0-26.563,11.901-26.563,26.563v294.526c0,14.664,11.901,26.562,26.563,26.562h302.972
		c14.665,0,26.563-11.898,26.563-26.562V188.161c0-14.662-11.898-26.563-26.563-26.563H112.823z M219.444,271.25
		c8.662-15.568,25.183-26.245,44.095-26.511c19.654-0.265,36.762,10.519,45.583,26.511c4.035,7.33,6.373,15.777,6.373,24.703
		c0,20.719-12.272,38.566-29.964,46.643v59.289c0,7.33-5.948,13.279-13.281,13.279h-15.938c-7.331,0-13.281-5.949-13.281-13.279
		v-59.289c-17.85-8.127-30.229-26.244-29.961-47.227C213.177,286.654,215.46,278.422,219.444,271.25L219.444,271.25z
		 M219.444,271.25"/>
</g>
</svg>
