<?xml version="1.0" encoding="utf-8"?>
<!-- Generator: Adobe Illustrator 16.0.0, SVG Export Plug-In . SVG Version: 6.00 Build 0)  -->
<!DOCTYPE svg PUBLIC "-//W3C//DTD SVG 1.1//EN" "http://www.w3.org/Graphics/SVG/1.1/DTD/svg11.dtd">
<svg version="1.1" id="Ebene_1" xmlns="http://www.w3.org/2000/svg" xmlns:xlink="http://www.w3.org/1999/xlink" x="0px" y="0px"
	 width="512px" height="512px" viewBox="0 0 512 512" enable-background="new 0 0 512 512" xml:space="preserve">
<path d="M255.966,301.253c-69.879,0-126.471-67.856-126.471-151.491c0-83.629,56.592-145.643,126.471-145.643
	c69.85,0,126.531,62.014,126.531,145.643C382.497,233.397,325.816,301.253,255.966,301.253L255.966,301.253z M59.214,506.1
	c0,0-26.84,1.753-38.663-14.507c-6.34-8.79-1.916-26.612,2.45-36.579l10.712-24.378c0,0,29.536-66.145,63.221-104.429
	c20.691-23.537,45.285-18.157,61.185-10.543c9.806,4.73,20.859,18.396,28.972,25.65c11.144,10.016,30.845,21.399,63.022,22h19.791
	c32.184-0.601,51.878-11.984,63.022-22c8.069-7.254,18.83-21.352,28.533-26.228c14.603-7.277,36.843-11.792,56.97,11.12
	c33.673,38.284,60.332,105.63,60.332,105.63l11,23.921c4.516,9.848,9.175,27.621,2.93,36.508
	c-11.048,15.947-35.93,13.834-35.93,13.834H59.214z M59.214,506.1"/>
</svg>
